<svg id="Layer_1" data-name="Layer 1" xmlns="http://www.w3.org/2000/svg" viewBox="0 0 153.34 130"><defs><style>.cls-1{fill:#e24329;}.cls-2{fill:#fc6d26;}.cls-3{fill:#fca326;}</style></defs><g id="g48"><g id="path50"><path class="cls-1" d="M81.59,127.31h0l25.32-76.46H56.28l25.31,76.46Z"/></g></g><g id="g56"><g id="path58"><path class="cls-2" d="M81.58,127.31,56.27,50.85H20.82l60.76,76.46Z"/></g></g><g id="g64"><g id="path66"><path class="cls-3" d="M20.81,50.88h0l-7.7,23.23A5.09,5.09,0,0,0,15,79.86l66.55,47.48L20.81,50.88Z"/></g></g><g id="g72"><g id="path74"><path class="cls-1" d="M20.82,50.88H56.29L41,4.82a2.65,2.65,0,0,0-5,0L20.82,50.88Z"/></g></g><g id="g76"><g id="path78"><path class="cls-2" d="M81.59,127.31l25.32-76.46h35.46L81.59,127.31Z"/></g></g><g id="g80"><g id="path82"><path class="cls-3" d="M142.35,50.88h0l7.7,23.23a5.09,5.09,0,0,1-1.9,5.75L81.6,127.31l60.75-76.43Z"/></g></g><g id="g84"><g id="path86"><path class="cls-1" d="M142.37,50.88H106.9L122.14,4.82a2.65,2.65,0,0,1,5,0l15.24,46.06Z"/></g></g><path d="M29.37,75.57a2,2,0,0,1-1.76-1l-8.68-16L3,67.23a2,2,0,1,1-1.91-3.52l17.73-9.63a2,2,0,0,1,2.71.8l9.64,17.74a2,2,0,0,1-.8,2.71A2.1,2.1,0,0,1,29.37,75.57Z"/><path d="M81.65,130a2.07,2.07,0,0,1-1.18-.38L14.25,81.5a7.2,7.2,0,0,1-2.62-8.07l5.5-16.92a2,2,0,1,1,3.8,1.24L15.44,74.66a3.2,3.2,0,0,0,1.16,3.6l65.05,47.27,65-47.27a3.22,3.22,0,0,0,1.19-3.61,2,2,0,1,1,3.81-1.21,7.22,7.22,0,0,1-2.65,8.06L82.83,129.62A2,2,0,0,1,81.65,130Z"/><path d="M142.47,53.54a2,2,0,0,1-1.9-1.38L125.06,4.41a.55.55,0,0,0-.57-.41.61.61,0,0,0-.61.43L108.73,51.09a2,2,0,0,1-1.9,1.38H56.46a2,2,0,0,1-1.9-1.38L39.4,4.41A.55.55,0,0,0,38.83,4a.58.58,0,0,0-.6.43L26.1,41.83a2,2,0,1,1-3.8-1.23L34.43,3.17A4.56,4.56,0,0,1,38.83,0h0A4.53,4.53,0,0,1,43.2,3.17l14.72,45.3h47.45l14.72-45.3A4.56,4.56,0,0,1,124.48,0h0a4.53,4.53,0,0,1,4.35,3.17l15.51,47.75a2,2,0,0,1-1.28,2.52A2,2,0,0,1,142.47,53.54Z"/><path d="M149.79,76.05a2,2,0,0,1-1.9-1.39l-2.1-6.46a2,2,0,1,1,3.8-1.23l2.11,6.46A2,2,0,0,1,150.41,76,2.17,2.17,0,0,1,149.79,76.05Z"/><path d="M143.44,57.45a2,2,0,0,1-.78-.16l-18.57-7.9a2,2,0,0,1,1.56-3.68l16.74,7.12L149.5,36.1a2,2,0,1,1,3.68,1.56l-7.89,18.58A2,2,0,0,1,143.44,57.45Z"/></svg>