<svg width="228" height="221" viewBox="0 0 228 221" fill="none" xmlns="http://www.w3.org/2000/svg">
<path d="M172.184 171.271C170.998 172.458 169.722 173.572 168.356 174.597L118.669 211.861C115.937 213.911 112.198 213.911 109.484 211.861L59.7977 174.597C58.4135 173.572 57.1372 172.44 55.9687 171.271C43.8888 159.137 42.1991 139.633 52.751 125.504C64.3456 109.991 86.2765 106.845 101.754 118.439L114.068 127.679L126.381 118.439C141.859 106.827 163.79 109.991 175.384 125.504C185.936 139.633 184.264 159.137 172.166 171.271H172.184Z" stroke="#FCA326" stroke-width="14.4" stroke-linejoin="round"/>
<path d="M187.409 12.7937C186.834 11.3017 185.792 10.0614 184.443 9.1985C183.095 8.33565 181.513 7.9222 179.913 8.01208C178.313 8.10196 176.786 8.67719 175.545 9.68386C174.305 10.6905 173.406 12.0567 172.993 13.5847L153.506 73.571H74.6272L55.1231 13.5847C54.7096 12.0387 53.8108 10.6905 52.5704 9.68386C51.33 8.67719 49.8021 8.10196 48.2022 8.01208C46.6023 7.9222 45.0205 8.33565 43.6723 9.1985C42.3241 10.0614 41.2814 11.3197 40.7062 12.7937L11.8365 88.5272L11.5489 89.2822C2.99222 111.716 10.2906 137.081 29.3273 151.569C29.3632 151.587 29.3992 151.623 29.4351 151.641L29.6868 151.839L73.6745 184.933L95.4255 201.489L108.656 211.556C111.838 213.983 116.26 213.983 119.442 211.556L132.672 201.489L154.423 184.933L198.662 151.641C198.662 151.641 198.734 151.587 198.77 151.551C217.807 137.063 225.087 111.716 216.549 89.2822L187.409 12.7937Z" stroke="#E24329" stroke-width="14.4" stroke-miterlimit="10"/>
</svg>
