<svg width="228" height="221" viewBox="0 0 228 221" fill="none" xmlns="http://www.w3.org/2000/svg">
<path d="M187.316 12.7917C186.741 11.3003 185.698 10.0605 184.351 9.19799C183.003 8.3355 181.422 7.92223 179.823 8.01207C178.223 8.10191 176.696 8.67691 175.456 9.68314C174.216 10.6894 173.318 12.055 172.905 13.5823L153.427 73.5433H74.581L55.1031 13.5823C54.6898 12.037 53.7914 10.6894 52.5515 9.68314C51.3117 8.67691 49.7844 8.10191 48.1852 8.01207C46.586 7.92223 45.0048 8.3355 43.6571 9.19799C42.3095 10.0605 41.2673 11.3183 40.6923 12.7917L11.8349 88.4931L11.5474 89.2478C2.99434 111.673 10.2896 137.026 29.3182 151.509C29.3542 151.527 29.3901 151.563 29.426 151.581L29.6776 151.778L73.6466 184.858L95.3885 201.407L108.613 211.47C111.794 213.895 116.214 213.895 119.394 211.47L132.619 201.407L154.361 184.858L198.582 151.581C198.582 151.581 198.654 151.527 198.69 151.491C217.718 137.008 224.996 111.673 216.46 89.2478L187.316 12.7917Z" stroke="#6FDAC9" stroke-width="14.4" stroke-miterlimit="10"/>
<path d="M174.647 129.372C160.685 111.187 138.71 99.454 114.003 99.454C89.2964 99.454 67.3209 111.169 53.3594 129.372" stroke="#10B1B1" stroke-width="14.4" stroke-miterlimit="10" stroke-linecap="round"/>
<path d="M174.649 99.4719C170.301 105.132 165.162 110.181 159.43 114.422" stroke="#10B1B1" stroke-width="14.4" stroke-miterlimit="10" stroke-linecap="round"/>
<path d="M114.003 174.94C134.843 174.94 151.737 158.046 151.737 137.206C151.737 116.366 134.843 99.4719 114.003 99.4719C93.1636 99.4719 76.2695 116.366 76.2695 137.206C76.2695 158.046 93.1636 174.94 114.003 174.94Z" stroke="#10B1B1" stroke-width="14.4" stroke-miterlimit="10" stroke-linecap="round"/>
<path d="M114.383 120.567C105.434 120.567 98.2109 127.808 98.2109 136.739C98.2109 145.669 105.434 152.91 114.383 152.91C123.331 152.91 130.554 145.669 130.554 136.739C130.554 136.346 130.54 135.957 130.511 135.571C130.386 133.861 127.996 133.505 126.45 134.245C125.516 134.691 124.47 134.942 123.367 134.942C119.396 134.942 116.179 131.725 116.179 127.754C116.179 126.627 116.437 125.561 116.898 124.612C117.643 123.081 117.306 120.738 115.607 120.612C115.203 120.582 114.794 120.567 114.383 120.567Z" fill="#10B1B1"/>
</svg>
