<svg width="228" height="221" viewBox="0 0 228 221" fill="none" xmlns="http://www.w3.org/2000/svg">
<path d="M69.5585 181.104V146.177H37.3633V157.304" stroke="#7759C2" stroke-width="14.4" stroke-linecap="round" stroke-linejoin="round"/>
<path d="M130.174 174.866V127.23H97.9609V199.206" stroke="#7759C2" stroke-width="14.4" stroke-linecap="round" stroke-linejoin="round"/>
<path d="M190.769 157.699V111.447H158.574V179.612" stroke="#7759C2" stroke-width="14.4" stroke-linecap="round" stroke-linejoin="round"/>
<path d="M187.409 12.7937C186.834 11.3017 185.791 10.0614 184.443 9.1985C183.095 8.33565 181.513 7.9222 179.913 8.01208C178.313 8.10196 176.785 8.67719 175.545 9.68386C174.305 10.6905 173.406 12.0567 172.992 13.5847L153.506 73.571H74.6271L55.123 13.5847C54.7095 12.0387 53.8108 10.6905 52.5704 9.68386C51.3301 8.67719 49.802 8.10196 48.2022 8.01208C46.6023 7.9222 45.0204 8.33565 43.6722 9.1985C42.324 10.0614 41.2814 11.3197 40.7062 12.7937L11.8365 88.5272L11.5489 89.2822C2.99223 111.716 10.2905 137.081 29.3272 151.569C29.3632 151.587 29.3992 151.623 29.4351 151.641L29.6868 151.839L73.6744 184.933L95.4255 201.489L108.656 211.556C111.838 213.983 116.26 213.983 119.442 211.556L132.672 201.489L154.423 184.933L198.662 151.641C198.662 151.641 198.734 151.587 198.77 151.551C217.807 137.063 225.087 111.716 216.549 89.2822L187.409 12.7937Z" stroke="#A989F5" stroke-width="14.4" stroke-miterlimit="10"/>
</svg>
