<svg width="228" height="221" viewBox="0 0 228 221" fill="none" xmlns="http://www.w3.org/2000/svg">
<path d="M150.829 113.856C150.541 113.118 150.02 112.489 149.337 112.058C148.654 111.626 147.863 111.411 147.072 111.465C146.281 111.501 145.508 111.806 144.879 112.31C144.249 112.813 143.818 113.496 143.602 114.269L133.841 144.325H94.3118L84.5327 114.269C84.3169 113.496 83.8676 112.813 83.2564 112.31C82.6273 111.806 81.8723 111.519 81.0634 111.465C80.2545 111.429 79.4635 111.626 78.7984 112.058C78.1153 112.489 77.5941 113.118 77.3064 113.856L62.8356 151.803L62.6918 152.181C58.3955 163.416 62.0626 176.143 71.6079 183.387C71.6259 183.387 71.6439 183.405 71.6619 183.423L71.7876 183.513L93.8264 200.105L104.72 208.41L111.173 213.03C112.971 214.001 115.146 214.001 116.962 213.03L123.415 208.41L134.309 200.105L156.473 183.423C156.473 183.423 156.509 183.387 156.527 183.369C166.072 176.107 169.722 163.398 165.425 152.163L150.811 113.82L150.829 113.856Z" stroke="#A989F5" stroke-width="14.4" stroke-miterlimit="10"/>
<path d="M187.409 12.7937C186.834 11.3017 185.792 10.0614 184.443 9.1985C183.095 8.33565 181.513 7.9222 179.913 8.01208C178.313 8.10196 176.785 8.67719 175.545 9.68386C174.305 10.6905 173.406 12.0567 172.993 13.5847L153.506 73.571H74.6273L55.123 13.5847C54.7095 12.0387 53.8109 10.6905 52.5705 9.68386C51.3302 8.67719 49.8021 8.10196 48.2022 8.01208C46.6023 7.9222 45.0204 8.33565 43.6722 9.1985C42.324 10.0614 41.2813 11.3197 40.7061 12.7937L11.8365 88.5272L11.5489 89.2822C2.99222 111.716 10.2906 137.081 29.3273 151.569C29.3632 151.587 29.3993 151.623 29.4352 151.641L29.6869 151.839L73.6745 184.933L95.4255 201.489L108.656 211.556C111.838 213.983 116.26 213.983 119.442 211.556L132.672 201.489L154.423 184.933L198.663 151.641C198.663 151.641 198.734 151.587 198.77 151.551C217.807 137.063 225.087 111.716 216.549 89.2822L187.409 12.7937Z" stroke="#7759C2" stroke-width="14.4" stroke-miterlimit="10"/>
</svg>
