<svg id="Layer_1" data-name="Layer 1" xmlns="http://www.w3.org/2000/svg" xmlns:xlink="http://www.w3.org/1999/xlink" viewBox="0 0 140.77 135.96"><defs><style>.cls-1{fill:none;}.cls-2{fill:#a686ff;}.cls-3{clip-path:url(#clip-path);}.cls-4{fill:#fca326;}.cls-5{fill:#e24329;}.cls-6{fill:#fc6d26;}</style><clipPath id="clip-path"><path class="cls-1" d="M138.52,74.05,130.85,50.5,115.68,3.79a2.62,2.62,0,0,0-5,0H30a2.62,2.62,0,0,0-5,0L9.92,50.47,2.26,74.05a5.21,5.21,0,0,0,1.89,5.83L70.37,128,136.6,79.88a5.24,5.24,0,0,0,1.92-5.83"/></clipPath></defs><path class="cls-2" d="M138.52,74.05,130.85,50.5,115.68,3.79a2.62,2.62,0,0,0-5,0l-9.58,29.5L95,50.47H45.19L30,3.79a2.62,2.62,0,0,0-5,0L9.92,50.47,2.26,74.05a5.21,5.21,0,0,0,1.89,5.83L70.37,128,136.6,79.88a5.24,5.24,0,0,0,1.92-5.83"/><g class="cls-3"><rect class="cls-4" x="26.23" y="62.83" width="20" height="64.12"/><path d="M46.23,129h-20a2,2,0,0,1-2-2V62.83a2,2,0,0,1,2-2h20a2,2,0,0,1,2,2V127A2,2,0,0,1,46.23,129Zm-18-4h16V64.83h-16Z"/><rect class="cls-5" x="60.39" y="17.97" width="20" height="113.57"/><path d="M80.39,133.54h-20a2,2,0,0,1-2-2V18a2,2,0,0,1,2-2h20a2,2,0,0,1,2,2V131.54A2,2,0,0,1,80.39,133.54Zm-18-4h16V20h-16Z"/><rect class="cls-6" x="94.39" y="33.38" width="20" height="100.58" transform="translate(208.77 167.33) rotate(-180)"/><path d="M114.39,136h-20a2,2,0,0,1-2-2V33.38a2,2,0,0,1,2-2h20a2,2,0,0,1,2,2V134A2,2,0,0,1,114.39,136Zm-18-4h16V35.38h-16Z"/></g><path d="M70.37,130a2,2,0,0,1-1.17-.38L3,81.5A7.21,7.21,0,0,1,.36,73.43L23.15,3.17A4.58,4.58,0,0,1,27.55,0h0a4.54,4.54,0,0,1,4.35,3.17l14.71,45.3H60a2,2,0,0,1,0,4H45.19a2,2,0,0,1-1.9-1.38L28.12,4.41A.53.53,0,0,0,27.56,4a.61.61,0,0,0-.61.43L4.16,74.66a3.23,3.23,0,0,0,1.16,3.6l65.05,47.27,65.06-47.27a3.23,3.23,0,0,0,1.18-3.61,2,2,0,0,1,3.81-1.21,7.22,7.22,0,0,1-2.64,8.06L71.55,129.62A2,2,0,0,1,70.37,130Z"/><path d="M93.91,52.47H80.48a2,2,0,1,1,0-4H93.91a2,2,0,0,1,0,4Z"/><path d="M138.52,76.05a2,2,0,0,1-1.9-1.39L113.78,4.41a.55.55,0,0,0-.57-.41h0a.59.59,0,0,0-.6.43L103,33.91a2,2,0,0,1-3.81-1.24l9.58-29.5A4.58,4.58,0,0,1,113.21,0h0a4.56,4.56,0,0,1,4.36,3.17l22.83,70.26A2,2,0,0,1,139.14,76,2.29,2.29,0,0,1,138.52,76.05Z"/></svg>
