<svg width="228" height="221" viewBox="0 0 228 221" fill="none" xmlns="http://www.w3.org/2000/svg">
<path d="M187.316 12.7917C186.741 11.3003 185.698 10.0605 184.351 9.19799C183.003 8.3355 181.422 7.92223 179.823 8.01207C178.223 8.10191 176.696 8.67691 175.456 9.68314C174.216 10.6894 173.318 12.055 172.905 13.5823L153.427 73.5433H74.581L55.1031 13.5823C54.6898 12.037 53.7914 10.6894 52.5515 9.68314C51.3117 8.67691 49.7844 8.10191 48.1852 8.01207C46.586 7.92223 45.0048 8.3355 43.6571 9.19799C42.3095 10.0605 41.2673 11.3183 40.6923 12.7917L11.8349 88.4931L11.5474 89.2478C2.99434 111.673 10.2896 137.026 29.3182 151.509C29.3542 151.527 29.3901 151.563 29.426 151.581L29.6776 151.778L73.6466 184.858L95.3885 201.407L108.613 211.47C111.794 213.895 116.214 213.895 119.394 211.47L132.619 201.407L154.361 184.858L198.582 151.581C198.582 151.581 198.654 151.527 198.69 151.491C217.718 137.008 224.996 111.673 216.46 89.2478L187.316 12.7917Z" stroke="#10B1B1" stroke-width="14.4" stroke-miterlimit="10" stroke-linecap="round"/>
<path d="M113.898 174.94C134.986 174.94 152.081 157.845 152.081 136.757C152.081 115.669 134.986 98.5735 113.898 98.5735C92.81 98.5735 75.7148 115.669 75.7148 136.757C75.7148 157.845 92.81 174.94 113.898 174.94Z" stroke="#6FDAC9" stroke-width="14.4" stroke-miterlimit="10"/>
<path d="M113.898 117.081V136.739L126.476 143.89" stroke="#6FDAC9" stroke-width="14.4" stroke-linecap="round" stroke-linejoin="round"/>
</svg>
