<svg width="228" height="221" viewBox="0 0 228 221" fill="none" xmlns="http://www.w3.org/2000/svg">
<path d="M25.6836 145.017H75.2868C75.2868 127.774 89.2448 113.814 106.448 113.814C115.992 113.814 124.524 118.112 130.246 124.873M207.957 135.041H152.125C152.125 152.285 138.167 166.244 120.964 166.244C111.124 166.244 102.33 161.667 96.625 154.521" stroke="#E24329" stroke-width="14.4" stroke-linecap="round" stroke-linejoin="round"/>
<path d="M187.409 12.7937C186.834 11.3017 185.792 10.0614 184.443 9.1985C183.095 8.33565 181.513 7.9222 179.913 8.01208C178.313 8.10196 176.786 8.67719 175.545 9.68386C174.305 10.6905 173.406 12.0567 172.993 13.5847L153.506 73.571H74.6272L55.1231 13.5847C54.7096 12.0387 53.8108 10.6905 52.5704 9.68386C51.33 8.67719 49.8021 8.10196 48.2022 8.01208C46.6023 7.9222 45.0205 8.33565 43.6723 9.1985C42.3241 10.0614 41.2814 11.3197 40.7062 12.7937L11.5489 89.2822C2.99222 111.716 10.2906 137.081 29.3273 151.569C29.3632 151.587 29.3992 151.623 29.4351 151.641L29.6868 151.839L73.6745 184.933L108.656 211.556C111.838 213.983 116.26 213.983 119.442 211.556L154.423 184.933L198.662 151.641C198.662 151.641 198.734 151.587 198.77 151.551C217.807 137.063 225.087 111.716 216.549 89.2822L187.409 12.7937Z" stroke="#FC6D26" stroke-width="14.4" stroke-miterlimit="10"/>
</svg>
