<svg id="Layer_1" data-name="Layer 1" xmlns="http://www.w3.org/2000/svg" xmlns:xlink="http://www.w3.org/1999/xlink" viewBox="0 0 140.77 130"><defs><style>.cls-1{fill:url(#linear-gradient);}</style><linearGradient id="linear-gradient" x1="99.67" y1="111.08" x2="34.23" y2="-2.27" gradientUnits="userSpaceOnUse"><stop offset="0" stop-color="aqua" stop-opacity="0.25"/><stop offset="1" stop-color="aqua" stop-opacity="0"/></linearGradient></defs><path class="cls-1" d="M138.52,74.05,130.85,50.5,115.68,3.79a2.62,2.62,0,0,0-5,0L95.55,50.47H45.19L30,3.79a2.62,2.62,0,0,0-5,0L9.92,50.47,2.26,74.05a5.21,5.21,0,0,0,1.89,5.83L70.37,128,136.6,79.88a5.24,5.24,0,0,0,1.92-5.83"/><path d="M70.37,130a2,2,0,0,1-1.17-.38L3,81.5A7.21,7.21,0,0,1,.36,73.43L23.15,3.17A4.58,4.58,0,0,1,27.55,0h0a4.53,4.53,0,0,1,4.35,3.17l14.71,45.3H94.1l14.71-45.3A4.58,4.58,0,0,1,113.21,0h0a4.56,4.56,0,0,1,4.36,3.17l22.83,70.26h0a7.22,7.22,0,0,1-2.64,8.06L71.55,129.62A2,2,0,0,1,70.37,130ZM27.55,4a.59.59,0,0,0-.6.43L4.16,74.66a3.22,3.22,0,0,0,1.17,3.6l65,47.27,65.06-47.27a3.22,3.22,0,0,0,1.18-3.6L113.78,4.41a.55.55,0,0,0-.57-.41h0a.59.59,0,0,0-.6.43L97.45,51.09a2,2,0,0,1-1.9,1.38H45.19a2,2,0,0,1-1.9-1.38L28.12,4.41A.53.53,0,0,0,27.56,4Z"/><path d="M71.56,98.54a2,2,0,0,1-1.17-3.61L100.31,73.2a2,2,0,0,1,2.35,3.23L72.73,98.16A2,2,0,0,1,71.56,98.54Z"/><path d="M86.48,98.54a2,2,0,0,1-1.17-3.62l12.35-9a2,2,0,0,1,2.8.44,2,2,0,0,1-.45,2.79l-12.36,9A2,2,0,0,1,86.48,98.54Z"/><path d="M73.93,86a2,2,0,0,1-1.62-.82,2,2,0,0,1,.44-2.8l12.36-9a2,2,0,1,1,2.35,3.23l-12.36,9A2,2,0,0,1,73.93,86Z"/></svg>
