<svg id="Layer_1" data-name="Layer 1" xmlns="http://www.w3.org/2000/svg" viewBox="0 0 46 46"><path d="M41.75,33.26a1,1,0,0,0-1,1V42a2,2,0,0,1-2,2H7.25a2,2,0,0,1-2-2V34.26a1,1,0,0,0-2,0V42a4,4,0,0,0,4,4h31.5a4,4,0,0,0,4-4V34.26A1,1,0,0,0,41.75,33.26Z"/><path d="M4.25,16.32h37.5a1,1,0,0,0,1-1V10.5a4,4,0,0,0-4-4H7.25a4,4,0,0,0-4,4v4.82A1,1,0,0,0,4.25,16.32Zm1-5.82a2,2,0,0,1,2-2h31.5a2,2,0,0,1,2,2v3.82H5.25Z"/><path d="M45,28.25H42.75V20.32a1,1,0,0,0-2,0v7.93H36.58a3.48,3.48,0,0,0-3.33-2.5,3.66,3.66,0,0,0-1.33.26l-4.73-5.87a1,1,0,0,0-1.7.25l-6.2,15.39-3.66-4.55a3.45,3.45,0,0,0,.62-2,3.49,3.49,0,0,0-6.83-1H5.25V20.32a1,1,0,0,0-2,0v7.93H1a1,1,0,0,0,0,2H9.42a3.48,3.48,0,0,0,4.66,2.24l4.73,5.87a1,1,0,0,0,.77.38h.15a1,1,0,0,0,.78-.62l6.2-15.39,3.66,4.55a3.49,3.49,0,1,0,6.21,3H45a1,1,0,0,0,0-2Zm-33.75,1a1.5,1.5,0,1,1,1.5,1.5A1.5,1.5,0,0,1,11.25,29.25Zm22,1.5a1.5,1.5,0,1,1,1.5-1.5A1.5,1.5,0,0,1,33.25,30.75Z"/></svg>