<svg id="Layer_1" data-name="Layer 1" xmlns="http://www.w3.org/2000/svg" viewBox="0 0 46 46"><path d="M33,16.92H22.33a3.47,3.47,0,0,0-6.67,0H13a1,1,0,0,0,0,2h2.64a3.47,3.47,0,0,0,6.67,0H33a1,1,0,0,0,0-2Zm-14,2.5a1.5,1.5,0,1,1,1.5-1.5A1.5,1.5,0,0,1,19,19.42Z"/><path d="M33,27.08H30.34a3.47,3.47,0,0,0-6.67,0H13a1,1,0,1,0,0,2H23.67a3.47,3.47,0,0,0,6.67,0H33a1,1,0,0,0,0-2Zm-6,2.5a1.5,1.5,0,1,1,1.5-1.5A1.51,1.51,0,0,1,27,29.58Z"/><path d="M1,24a1,1,0,0,0,1-1,21.63,21.63,0,0,1,.17-2.67L6.6,18.71a1,1,0,0,0,.62-.64,16.31,16.31,0,0,1,1.14-2.73,1,1,0,0,0,0-.89l-2-4.28a21.25,21.25,0,0,1,3.79-3.79l4.28,2a1,1,0,0,0,.89,0,16.67,16.67,0,0,1,2.73-1.14,1,1,0,0,0,.64-.62l1.62-4.43a20.75,20.75,0,0,1,5.34,0L27.29,6.6a1,1,0,0,0,.64.62,16.67,16.67,0,0,1,2.73,1.14,1,1,0,0,0,.89,0l4.28-2a21.25,21.25,0,0,1,3.79,3.79l-2,4.28a1,1,0,0,0,0,.89,16.31,16.31,0,0,1,1.14,2.73,1,1,0,0,0,.62.64l5,1.82a1,1,0,1,0,.69-1.88L40.54,17a18.86,18.86,0,0,0-.9-2.15l2-4.38a1,1,0,0,0-.1-1,22.73,22.73,0,0,0-5-5,1,1,0,0,0-1-.1l-4.38,2A19.65,19.65,0,0,0,29,5.46L27.35.92a1,1,0,0,0-.79-.64,23,23,0,0,0-7.12,0,1,1,0,0,0-.79.64L17,5.46a19.65,19.65,0,0,0-2.15.9l-4.38-2a1,1,0,0,0-1,.1,22.73,22.73,0,0,0-5,5,1,1,0,0,0-.1,1l2,4.38A18.86,18.86,0,0,0,5.46,17L.92,18.65a1,1,0,0,0-.64.79A22.29,22.29,0,0,0,0,23,1,1,0,0,0,1,24Z"/><path d="M45,22a1,1,0,0,0-1,1,21.63,21.63,0,0,1-.17,2.67L39.4,27.29a1,1,0,0,0-.62.64,16.31,16.31,0,0,1-1.14,2.73,1,1,0,0,0,0,.89l2,4.28a21.25,21.25,0,0,1-3.79,3.79l-4.28-2a1,1,0,0,0-.89,0,16.67,16.67,0,0,1-2.73,1.14,1,1,0,0,0-.64.62l-1.62,4.43a20.75,20.75,0,0,1-5.34,0L18.71,39.4a1,1,0,0,0-.64-.62,16.67,16.67,0,0,1-2.73-1.14,1,1,0,0,0-.89,0l-4.28,2a21.25,21.25,0,0,1-3.79-3.79l2-4.28a1,1,0,0,0,0-.89,16.31,16.31,0,0,1-1.14-2.73,1,1,0,0,0-.62-.65l-5-1.81a1,1,0,1,0-.69,1.88L5.46,29a18.86,18.86,0,0,0,.9,2.15l-2,4.38a1,1,0,0,0,.1,1,22.73,22.73,0,0,0,5,5,1,1,0,0,0,1,.1l4.38-2a19.65,19.65,0,0,0,2.15.9l1.65,4.54a1,1,0,0,0,.79.64,22.77,22.77,0,0,0,7.12,0,1,1,0,0,0,.79-.64L29,40.54a19.65,19.65,0,0,0,2.15-.9l4.38,2a1,1,0,0,0,1-.1,22.73,22.73,0,0,0,5-5,1,1,0,0,0,.1-1l-2-4.38a19.65,19.65,0,0,0,.9-2.15l4.54-1.65a1,1,0,0,0,.64-.79A22.29,22.29,0,0,0,46,23,1,1,0,0,0,45,22Z"/></svg>