<svg id="Layer_1" data-name="Layer 1" xmlns="http://www.w3.org/2000/svg" viewBox="0 0 46 46"><path d="M44.76,5.4,40.6,1.24a4.26,4.26,0,0,0-6,0L30.77,5.07,15,20.88a1,1,0,0,0,0,1.41,1,1,0,0,0,.7.3,1,1,0,0,0,.71-.3l15.1-15.1,8,8a1,1,0,0,0,.71.29,1,1,0,0,0,.71-.29l3.83-3.84A4.24,4.24,0,0,0,44.76,5.4ZM43.34,10l-3.12,3.13L32.89,5.78,36,2.65a2.25,2.25,0,0,1,3.17,0l4.15,4.16A2.23,2.23,0,0,1,43.34,10Z"/><path d="M13,23.84l-.18-.08-.08,0a.34.34,0,0,0-.1,0,.74.74,0,0,0-.21,0,.57.57,0,0,0-.18,0l-.17.07-.17.11s-.06,0-.09.06,0,.05,0,.07a.62.62,0,0,0-.11.17.71.71,0,0,0-.08.18s0,0,0,.08L9.33,35a1,1,0,0,0,1,1.21h.15l11-1.72.1,0,.19-.07a.88.88,0,0,0,.17-.12l.09-.06L36.94,19.21a1,1,0,0,0-1.41-1.41L21.29,32l-8-8L13.19,24Zm.12,2.87,6.05,6L11.59,34Z"/><path d="M40.06,21.38a1,1,0,0,0-1,1v19h-32a3.58,3.58,0,0,0-.9-1.55A3.38,3.38,0,0,0,4.6,39v-32H24a1,1,0,0,0,0-2H3.6a1,1,0,0,0-1,1V39a3.39,3.39,0,0,0-1.54.87,3.6,3.6,0,1,0,6,3.55h33a1,1,0,0,0,1-1v-20A1,1,0,0,0,40.06,21.38ZM4.74,43.53a1.61,1.61,0,1,1,0-2.27,1.63,1.63,0,0,1,.47,1.14A1.59,1.59,0,0,1,4.74,43.53Z"/></svg>