<svg xmlns="http://www.w3.org/2000/svg" viewBox="0 0 46 46" enable-background="new 0 0 46 46"><path d="m8.247 28.24c-.375-.375-1.039-.375-1.414 0l-6.54 6.541c-.286.286-.372.716-.217 1.09.154.374.52.617.924.617h1.973v8.513c0 .553.447 1 1 1h7.136c.553 0 1-.447 1-1v-.953c1.372-.429 2.378-1.698 2.378-3.21 0-1.863-1.516-3.379-3.378-3.379-1.863 0-3.379 1.516-3.379 3.379 0 1.456.932 2.688 2.226 3.162h-4.983v-8.514c0-.552-.447-1-1-1h-.559l4.126-4.125 4.127 4.126h-.559c-.553 0-1 .448-1 1s.447 1 1 1h2.973c.404 0 .77-.244.924-.617.155-.374.069-.804-.217-1.09l-6.541-6.54m2.861 11.22c.76 0 1.378.618 1.378 1.379 0 .76-.618 1.378-1.378 1.378-.761 0-1.379-.618-1.379-1.378.001-.761.619-1.379 1.379-1.379"/><path d="m23.707 16.347c-.188-.188-.441-.293-.707-.293s-.52.105-.707.293l-6.541 6.541c-.286.286-.372.716-.217 1.09.154.374.52.617.924.617h1.974v20.405c0 .553.447 1 1 1h7.135c.553 0 1-.447 1-1v-20.406h1.973c.404 0 .77-.244.924-.617.155-.374.069-.804-.217-1.09l-6.541-6.54m2.86 6.247c-.553 0-1 .448-1 1v20.406h-5.135v-20.406c0-.552-.447-1-1-1h-.56l4.128-4.126 4.126 4.126h-.559"/><path d="m45.707 6.833l-6.54-6.541c-.187-.187-.441-.292-.707-.292s-.52.105-.707.293l-6.541 6.541c-.286.286-.372.716-.217 1.09.154.374.52.617.924.617h1.973v36.459c0 .553.447 1 1 1h7.136c.553 0 1-.447 1-1v-23.547c1.372-.429 2.378-1.698 2.378-3.21 0-1.863-1.516-3.378-3.378-3.378-1.863 0-3.379 1.516-3.379 3.378 0 1.512 1.01 2.781 2.379 3.21v22.547h-5.136v-36.46c0-.552-.447-1-1-1h-.559l4.127-4.126 4.126 4.126h-.559c-.553 0-1 .448-1 1v4.093c0 .552.447 1 1 1s1-.448 1-1v-3.093h1.973c.404 0 .77-.244.924-.617.155-.374.069-.804-.217-1.09m-3.68 10.03c.76 0 1.378.618 1.378 1.378s-.618 1.378-1.378 1.378c-.761 0-1.379-.618-1.379-1.378s.619-1.378 1.379-1.378"/></svg>