<svg id="Layer_1" data-name="Layer 1" xmlns="http://www.w3.org/2000/svg" viewBox="0 0 46 46"><path d="M46,25.7A3.5,3.5,0,1,0,41.5,29V44H4.5V31.82a1,1,0,0,0-2,0V45a1,1,0,0,0,1,1h39a1,1,0,0,0,1-1V29A3.5,3.5,0,0,0,46,25.7Zm-3.5,1.5A1.5,1.5,0,1,1,44,25.7,1.5,1.5,0,0,1,42.5,27.2Z"/><path d="M7,24.32A3.5,3.5,0,0,0,4.5,21V6h37V18.19a1,1,0,0,0,2,0V5a1,1,0,0,0-1-1H3.5a1,1,0,0,0-1,1V21A3.49,3.49,0,1,0,7,24.32Zm-5,0a1.5,1.5,0,1,1,1.5,1.5A1.5,1.5,0,0,1,2,24.32Z"/><path d="M28.47,29.82a1,1,0,0,0,1.42,0l4.1-4.1a1,1,0,0,0,0-1.42l-4.1-4.1a1,1,0,0,0-1.42,0,1,1,0,0,0,0,1.41l3.4,3.4-3.4,3.4A1,1,0,0,0,28.47,29.82Z"/><path d="M17.53,20.2a1,1,0,0,0-1.42,0L12,24.3a1,1,0,0,0,0,1.42l4.1,4.1a1,1,0,0,0,.71.29,1,1,0,0,0,.71-1.7L14.13,25l3.4-3.4A1,1,0,0,0,17.53,20.2Z"/><path d="M24.37,18,19.73,31.39a1,1,0,0,0,.62,1.28,1.26,1.26,0,0,0,.33,0,1,1,0,0,0,.94-.67l4.65-13.42a1,1,0,0,0-1.9-.66Z"/></svg>