<svg id="Layer_1" data-name="Layer 1" xmlns="http://www.w3.org/2000/svg" viewBox="0 0 46 46"><path d="M45,35.19H34.28a3.48,3.48,0,0,0-6.68,0H16.5a2.87,2.87,0,0,1,0-5.74H29.07a4.87,4.87,0,1,0,0-9.73L18,19.67a3.47,3.47,0,0,0-6.67,0H5.22V12.08a2,2,0,0,1,2-2H10.5v2.5a1,1,0,0,0,1,1h3.82a1,1,0,0,0,1-1v-2.5H31v2.5a1,1,0,0,0,1,1h3.82a1,1,0,0,0,1-1v-2.5h2.49a2,2,0,0,1,2,2V31.19a1,1,0,1,0,2,0V12.08a4,4,0,0,0-4-4H36.83V5.58a1,1,0,0,0-1-1H32a1,1,0,0,0-1,1v2.5H16.32V5.58a1,1,0,0,0-1-1H11.5a1,1,0,0,0-1,1v2.5H7.22a4,4,0,0,0-4,4v7.58H1a1,1,0,0,0,0,2H11.3a3.48,3.48,0,0,0,6.67,0l11.1,0a2.87,2.87,0,1,1,0,5.73H16.5a4.87,4.87,0,0,0,0,9.74H27.6a3.48,3.48,0,0,0,6.68,0h7V42a2,2,0,0,1-2,2H7.22a2,2,0,0,1-2-2V25.72a1,1,0,0,0-2,0V42a4,4,0,0,0,4,4h32.1a4,4,0,0,0,4-4V37.19H45a1,1,0,0,0,0-2ZM33,6.58h1.82v2.5h0v2.49H33Zm-20.51,0h1.82v5H12.5Zm2.13,15.58a1.5,1.5,0,1,1,1.5-1.5A1.5,1.5,0,0,1,14.63,22.16ZM30.94,37.69a1.5,1.5,0,1,1,1.5-1.5A1.5,1.5,0,0,1,30.94,37.69Z"/></svg>