<svg id="Layer_1" data-name="Layer 1" xmlns="http://www.w3.org/2000/svg" viewBox="0 0 46 46"><path d="M43.29,26.4a3.49,3.49,0,0,0,0-6.8A20.54,20.54,0,0,0,26.52,2.81a3.5,3.5,0,0,0-6.86,0A20.51,20.51,0,0,0,2.89,19.56a3.49,3.49,0,0,0,0,6.88A20.44,20.44,0,0,0,10.3,39a1.06,1.06,0,0,0,.63.21,1,1,0,0,0,.62-1.78A18.34,18.34,0,0,1,4.89,26.21a3.49,3.49,0,0,0,0-6.42,18.52,18.52,0,0,1,15-15,3.49,3.49,0,0,0,6.48,0,18.55,18.55,0,0,1,15,14.93,3.48,3.48,0,0,0,0,6.54A18.55,18.55,0,0,1,23.09,41.5H6.84a3.5,3.5,0,1,0,0,2H23.09A20.55,20.55,0,0,0,43.29,26.4ZM3.5,24.5A1.5,1.5,0,1,1,5,23,1.5,1.5,0,0,1,3.5,24.5ZM23.09,5a1.5,1.5,0,1,1,1.5-1.5A1.5,1.5,0,0,1,23.09,5ZM42.5,21.5A1.5,1.5,0,1,1,41,23,1.5,1.5,0,0,1,42.5,21.5ZM3.5,44A1.5,1.5,0,1,1,5,42.5,1.5,1.5,0,0,1,3.5,44Z"/><path d="M45.92,42.12a1.15,1.15,0,0,0-.21-.33l-2.5-2.5a1,1,0,0,0-1.42,1.42l.8.79H35.75a1,1,0,0,0,0,2h6.84l-.8.79a1,1,0,0,0,0,1.42,1,1,0,0,0,1.42,0l2.5-2.5a1,1,0,0,0,.21-.33A1,1,0,0,0,45.92,42.12Z"/><path d="M21.35,28a1,1,0,0,0,.7-.29l6-6a1,1,0,0,0,0-1.41,1,1,0,0,0-1.41,0L21.35,25.6l-1.83-1.83a1,1,0,0,0-1.41,0,1,1,0,0,0,0,1.42l2.53,2.53A1,1,0,0,0,21.35,28Z"/></svg>