<svg id="Layer_1" data-name="Layer 1" xmlns="http://www.w3.org/2000/svg" viewBox="0 0 46 46"><path d="M10.92,17.32a3.67,3.67,0,0,0-2.39-3.43,14.76,14.76,0,0,1,27.89-3.28,1,1,0,1,0,1.81-.83,16.75,16.75,0,0,0-31.7,3.94,3.66,3.66,0,0,0-2.79,2.6H1a1,1,0,0,0,0,2H3.74a3.66,3.66,0,0,0,7.18-1ZM7.25,19a1.67,1.67,0,1,1,1.67-1.67A1.67,1.67,0,0,1,7.25,19Z"/><path d="M45,16.32H42.26a3.66,3.66,0,1,0-5,4.32,14.68,14.68,0,0,1-5.43,8,.94.94,0,0,0-.19.14,14.76,14.76,0,0,1-21.36-4.59,1,1,0,0,0-1.73,1A16.78,16.78,0,0,0,31.32,31.3v12L23.48,39a1,1,0,0,0-1,0L14.68,43.3V34.44a1,1,0,0,0-2,0V45a1,1,0,0,0,1.49.88L23,41l8.83,4.89a1.07,1.07,0,0,0,.49.12,1.06,1.06,0,0,0,.51-.14,1,1,0,0,0,.49-.86V30a16.7,16.7,0,0,0,5.89-9,3.64,3.64,0,0,0,3-2.62H45a1,1,0,0,0,0-2ZM38.75,19a1.67,1.67,0,1,1,1.67-1.67A1.67,1.67,0,0,1,38.75,19Z"/><path d="M26.57,13.6l-5.31,5.31-1.83-1.82A1,1,0,0,0,18,18.5L20.55,21A1,1,0,0,0,22,21l6-6a1,1,0,0,0-1.41-1.41Z"/></svg>