<?xml version="1.0" encoding="UTF-8"?><svg id="Layer_1" xmlns="http://www.w3.org/2000/svg" viewBox="0 0 15 16"><path d="m3,12h12V0H3C1.34,0,0,1.34,0,3v10c0,1.66,1.34,3,3,3h12v-2H3c-.55,0-1-.45-1-1s.45-1,1-1Zm1.62-6.7v-.02s.96-2.49.96-2.49c.02-.05.05-.09.1-.12.04-.03.1-.04.15-.04.05,0,.1.02.14.05.04.03.07.08.08.13l.64,1.97h2.6l.64-1.97c.01-.05.04-.1.08-.13.04-.03.09-.05.14-.05.05,0,.1.01.15.04.04.03.08.07.1.12l.95,2.49v.03c.29.74.05,1.57-.58,2.04,0,0,0,0,0,0l-1.46,1.09-.72.54-.44.33c-.11.08-.25.08-.36,0l-.44-.33-.72-.54-1.45-1.09h0s0,0,0,0c-.63-.48-.87-1.31-.59-2.04Z" fill="#a989f5"/></svg>