<?xml version="1.0" encoding="UTF-8"?><svg id="Layer_1" xmlns="http://www.w3.org/2000/svg" viewBox="0 0 34 36"><path d="m7.5,27h26.5V0H6C2.69,0,0,2.69,0,6v24c0,3.31,2.69,6,6,6h28v-4H7.5c-1.38,0-2.5-1.12-2.5-2.5s1.12-2.5,2.5-2.5Zm2.5-14.73l.02-.06,2.21-5.76c.04-.11.12-.21.23-.27.1-.07.22-.1.35-.09.12,0,.24.05.33.13.09.08.16.18.2.3l1.49,4.56h6.03l1.49-4.56c.03-.12.1-.22.2-.3.1-.08.21-.12.33-.13.12,0,.24.02.35.09.1.07.18.16.23.27l2.21,5.76.02.06c.65,1.7.1,3.63-1.36,4.73,0,0,0,0,0,0l-3.38,2.53-1.66,1.26-1.01.76c-.24.18-.58.18-.82,0l-1.01-.76-1.66-1.26-3.36-2.52h-.02s0-.02,0-.02c-1.46-1.1-2.01-3.03-1.36-4.73Z" fill="#a989f5"/></svg>