<svg width="1024" height="1024" viewBox="0 0 1024 1024" fill="none" xmlns="http://www.w3.org/2000/svg">
<g clip-path="url(#clip0_3_106)">
<g filter="url(#filter0_d_3_106)">
<path fill-rule="evenodd" clip-rule="evenodd" d="M924 356.627C924 346.845 924.004 337.062 923.944 327.279C923.895 319.038 923.8 310.799 923.576 302.562C923.092 284.609 922.033 266.502 918.84 248.749C915.602 230.741 910.314 213.98 901.981 197.617C893.789 181.534 883.088 166.817 870.32 154.058C857.555 141.299 842.834 130.605 826.746 122.418C810.366 114.083 793.587 108.797 775.558 105.56C757.803 102.372 739.691 101.315 721.738 100.83C713.495 100.607 705.253 100.513 697.008 100.462C687.22 100.402 677.432 100.407 667.644 100.407L553.997 100H468.997L357.361 100.407C347.554 100.407 337.747 100.402 327.94 100.462C319.678 100.513 311.42 100.607 303.161 100.83C285.167 101.315 267.014 102.373 249.217 105.565C231.164 108.801 214.36 114.085 197.958 122.414C181.835 130.602 167.083 141.297 154.291 154.058C141.501 166.816 130.78 181.53 122.573 197.61C114.217 213.981 108.919 230.752 105.673 248.77C102.477 266.516 101.418 284.617 100.931 302.562C100.709 310.8 100.613 319.039 100.563 327.279C100.503 337.063 100 349.216 100 358.999L100.003 469.089L100 554.998L100.508 667.427C100.508 677.223 100.504 687.019 100.563 696.815C100.613 705.067 100.709 713.317 100.932 721.566C101.418 739.542 102.479 757.675 105.678 775.452C108.923 793.484 114.22 810.269 122.569 826.653C130.777 842.759 141.5 857.495 154.291 870.272C167.082 883.049 181.83 893.757 197.95 901.956C214.362 910.302 231.174 915.595 249.238 918.836C267.027 922.029 285.174 923.088 303.161 923.573C311.42 923.796 319.679 923.891 327.941 923.941C337.748 924.001 347.554 923.997 357.361 923.997L470.006 924H555.217L667.644 923.996C677.432 923.996 687.22 924.001 697.008 923.941C705.253 923.891 713.495 923.796 721.738 923.573C739.698 923.087 757.816 922.027 775.579 918.832C793.597 915.591 810.368 910.3 826.739 901.959C842.831 893.761 857.554 883.051 870.32 870.272C883.086 857.497 893.786 842.763 901.978 826.66C910.316 810.268 915.604 793.475 918.844 775.431C922.034 757.661 923.092 739.535 923.577 721.566C923.8 713.316 923.895 705.066 923.944 696.815C924.005 687.019 924 677.223 924 667.427C924 667.427 923.994 556.983 923.994 554.998V468.999C923.994 467.533 924 356.627 924 356.627Z" fill="url(#paint0_radial_3_106)"/>
</g>
<mask id="mask0_3_106" style="mask-type:luminance" maskUnits="userSpaceOnUse" x="100" y="100" width="824" height="824">
<path fill-rule="evenodd" clip-rule="evenodd" d="M924 356.627C924 346.845 924.004 337.062 923.944 327.279C923.895 319.038 923.8 310.799 923.576 302.562C923.092 284.609 922.033 266.502 918.84 248.749C915.602 230.741 910.314 213.98 901.981 197.617C893.789 181.534 883.088 166.817 870.32 154.058C857.555 141.299 842.834 130.605 826.746 122.418C810.366 114.083 793.587 108.797 775.558 105.56C757.803 102.372 739.691 101.315 721.738 100.83C713.495 100.607 705.253 100.513 697.008 100.462C687.22 100.402 677.432 100.407 667.644 100.407L553.997 100H468.997L357.361 100.407C347.554 100.407 337.747 100.402 327.94 100.462C319.678 100.513 311.42 100.607 303.161 100.83C285.167 101.315 267.014 102.373 249.217 105.565C231.164 108.801 214.36 114.085 197.958 122.414C181.835 130.602 167.083 141.297 154.291 154.058C141.501 166.816 130.78 181.53 122.573 197.61C114.217 213.981 108.919 230.752 105.673 248.77C102.477 266.516 101.418 284.617 100.931 302.562C100.709 310.8 100.613 319.039 100.563 327.279C100.503 337.063 100 349.216 100 358.999L100.003 469.089L100 554.998L100.508 667.427C100.508 677.223 100.504 687.019 100.563 696.815C100.613 705.067 100.709 713.317 100.932 721.566C101.418 739.542 102.479 757.675 105.678 775.452C108.923 793.484 114.22 810.269 122.569 826.653C130.777 842.759 141.5 857.495 154.291 870.272C167.082 883.049 181.83 893.757 197.95 901.956C214.362 910.302 231.174 915.595 249.238 918.836C267.027 922.029 285.174 923.088 303.161 923.573C311.42 923.796 319.679 923.891 327.941 923.941C337.748 924.001 347.554 923.997 357.361 923.997L470.006 924H555.217L667.644 923.996C677.432 923.996 687.22 924.001 697.008 923.941C705.253 923.891 713.495 923.796 721.738 923.573C739.698 923.087 757.816 922.027 775.579 918.832C793.597 915.591 810.368 910.3 826.739 901.959C842.831 893.761 857.554 883.051 870.32 870.272C883.086 857.497 893.786 842.763 901.978 826.66C910.316 810.268 915.604 793.475 918.844 775.431C922.034 757.661 923.092 739.535 923.577 721.566C923.8 713.316 923.895 705.066 923.944 696.815C924.005 687.019 924 677.223 924 667.427C924 667.427 923.994 556.983 923.994 554.998V468.999C923.994 467.533 924 356.627 924 356.627Z" fill="white"/>
</mask>
<g mask="url(#mask0_3_106)">
<g filter="url(#filter1_di_3_106)">
<path fill-rule="evenodd" clip-rule="evenodd" d="M253 325C253 276.399 292.399 237 341 237H771V647H355C334.013 647 317 664.013 317 685C317 705.987 334.013 723 355 723H771V787H341C292.399 787 253 747.601 253 699V325ZM631.536 422.709L631.87 423.601C636.722 436.304 637.316 450.242 633.562 463.312C629.809 476.383 621.911 487.878 611.06 496.065L610.917 496.177L559.204 534.911L518.253 565.885C516.438 567.257 514.224 568 511.948 568C509.673 568 507.459 567.257 505.643 565.885L464.693 534.911L413.346 496.4L413.059 496.177L412.932 496.081C402.08 487.891 394.184 476.392 390.433 463.318C386.683 450.244 387.281 436.305 392.138 423.601L392.488 422.725L426.226 334.598C426.91 332.868 428.125 331.401 429.697 330.408C430.871 329.66 432.203 329.197 433.588 329.055C434.972 328.914 436.371 329.098 437.671 329.593C438.972 330.089 440.139 330.881 441.079 331.908C442.02 332.934 442.707 334.167 443.087 335.507L465.871 405.31H558.137L580.921 335.507C581.298 334.165 581.984 332.93 582.924 331.902C583.864 330.873 585.031 330.079 586.333 329.583C587.635 329.088 589.034 328.904 590.42 329.047C591.805 329.19 593.138 329.656 594.311 330.408C595.883 331.401 597.099 332.868 597.782 334.598L631.536 422.709Z" fill="url(#paint1_linear_3_106)"/>
</g>
<g filter="url(#filter2_dd_3_106)">
<path d="M646.37 409.08L645.996 408.079L608.159 309.278C607.393 307.338 606.03 305.692 604.268 304.579C602.953 303.736 601.459 303.214 599.906 303.053C598.353 302.892 596.784 303.098 595.325 303.654C593.866 304.21 592.557 305.1 591.503 306.254C590.45 307.407 589.681 308.791 589.258 310.296L563.718 388.569H460.291L434.751 310.296C434.325 308.794 433.554 307.412 432.5 306.261C431.446 305.109 430.138 304.221 428.68 303.665C427.222 303.11 425.655 302.903 424.103 303.062C422.551 303.221 421.057 303.74 419.741 304.579C417.979 305.692 416.616 307.338 415.851 309.278L378.031 408.097L377.639 409.08C372.194 423.325 371.523 438.956 375.728 453.616C379.932 468.276 388.784 481.171 400.948 490.355L401.091 490.462L401.412 490.712L458.97 533.896L487.527 555.496L504.875 568.628C506.91 570.167 509.391 571 511.942 571C514.493 571 516.974 570.167 519.01 568.628L536.358 555.496L564.914 533.896L622.883 490.462L623.044 490.337C635.207 481.156 644.06 468.266 648.267 453.61C652.475 438.953 651.809 423.325 646.37 409.08Z" fill="url(#paint2_linear_3_106)"/>
</g>
</g>
</g>
<defs>
<filter id="filter0_d_3_106" x="0" y="0" width="1024" height="1024" filterUnits="userSpaceOnUse" color-interpolation-filters="sRGB">
<feFlood flood-opacity="0" result="BackgroundImageFix"/>
<feOffset dy="10"/>
<feGaussianBlur stdDeviation="5"/>
<feColorMatrix type="matrix" values="0 0 0 0 0 0 0 0 0 0 0 0 0 0 0 0 0 0 0.3 0"/>
<feBlend mode="normal" in2="BackgroundImageFix" result="effect1_dropShadow_3_106"/>
<feBlend mode="normal" in="SourceGraphic" in2="effect1_dropShadow_3_106" result="shape"/>
</filter>
<filter id="filter1_di_3_106" x="221" y="231" width="582" height="614" filterUnits="userSpaceOnUse" color-interpolation-filters="sRGB">
<feFlood flood-opacity="0" result="BackgroundImageFix"/>
<feColorMatrix in="SourceAlpha" type="matrix" values="0 0 0 0 0 0 0 0 0 0 0 0 0 0 0 0 0 0 127 0" result="hardAlpha"/>
<feOffset dy="26"/>
<feGaussianBlur stdDeviation="16"/>
<feColorMatrix type="matrix" values="0 0 0 0 0.0901961 0 0 0 0 0.0745098 0 0 0 0 0.129412 0 0 0 0.32 0"/>
<feBlend mode="normal" in2="BackgroundImageFix" result="effect1_dropShadow_3_106"/>
<feBlend mode="normal" in="SourceGraphic" in2="effect1_dropShadow_3_106" result="shape"/>
<feColorMatrix in="SourceAlpha" type="matrix" values="0 0 0 0 0 0 0 0 0 0 0 0 0 0 0 0 0 0 127 0" result="hardAlpha"/>
<feOffset dy="2"/>
<feGaussianBlur stdDeviation="1"/>
<feComposite in2="hardAlpha" operator="arithmetic" k2="-1" k3="1"/>
<feColorMatrix type="matrix" values="0 0 0 0 1 0 0 0 0 1 0 0 0 0 1 0 0 0 0.48 0"/>
<feBlend mode="normal" in2="shape" result="effect2_innerShadow_3_106"/>
</filter>
<filter id="filter2_dd_3_106" x="341" y="283" width="342" height="332" filterUnits="userSpaceOnUse" color-interpolation-filters="sRGB">
<feFlood flood-opacity="0" result="BackgroundImageFix"/>
<feColorMatrix in="SourceAlpha" type="matrix" values="0 0 0 0 0 0 0 0 0 0 0 0 0 0 0 0 0 0 127 0" result="hardAlpha"/>
<feOffset dy="12"/>
<feGaussianBlur stdDeviation="16"/>
<feComposite in2="hardAlpha" operator="out"/>
<feColorMatrix type="matrix" values="0 0 0 0 0.0901961 0 0 0 0 0.0745098 0 0 0 0 0.129412 0 0 0 0.16 0"/>
<feBlend mode="normal" in2="BackgroundImageFix" result="effect1_dropShadow_3_106"/>
<feColorMatrix in="SourceAlpha" type="matrix" values="0 0 0 0 0 0 0 0 0 0 0 0 0 0 0 0 0 0 127 0" result="hardAlpha"/>
<feOffset dy="4"/>
<feGaussianBlur stdDeviation="4"/>
<feComposite in2="hardAlpha" operator="out"/>
<feColorMatrix type="matrix" values="0 0 0 0 0.0901961 0 0 0 0 0.0745098 0 0 0 0 0.129412 0 0 0 0.24 0"/>
<feBlend mode="normal" in2="effect1_dropShadow_3_106" result="effect2_dropShadow_3_106"/>
<feBlend mode="normal" in="SourceGraphic" in2="effect2_dropShadow_3_106" result="shape"/>
</filter>
<radialGradient id="paint0_radial_3_106" cx="0" cy="0" r="1" gradientUnits="userSpaceOnUse" gradientTransform="translate(512 100) rotate(90) scale(824)">
<stop stop-color="#69617E"/>
<stop offset="1" stop-color="#171321"/>
</radialGradient>
<linearGradient id="paint1_linear_3_106" x1="512" y1="237" x2="512" y2="787" gradientUnits="userSpaceOnUse">
<stop stop-color="#D6C5FF"/>
<stop offset="0.510417" stop-color="#A989F5"/>
<stop offset="1" stop-color="#8362D1"/>
</linearGradient>
<linearGradient id="paint2_linear_3_106" x1="512" y1="303" x2="512" y2="571" gradientUnits="userSpaceOnUse">
<stop stop-color="white"/>
<stop offset="1" stop-color="#FAF9F9"/>
</linearGradient>
<clipPath id="clip0_3_106">
<rect width="1024" height="1024" fill="white"/>
</clipPath>
</defs>
</svg>
