<svg xmlns="http://www.w3.org/2000/svg" viewBox="0 0 1025 500" role="img" aria-label="GitLab DevSecOps Lifecycle">
<style>
      .text {
        font-family: Inter,Source Sans Pro,sans-serif;
        font-size: 20px;
        font-weight: bold;
        fill: #2b2838;
        letter-spacing: .02em;
        dominant-baseline: middle;
        text-anchor: middle;
      }
      .text2 {
        font-size: 26px;
        fill: #2b2838;
      }
      .devsecops {
        font-size: 56px;
        fill: black;
      }
      .mix {
        mix-blend-mode: color-burn;
      }
      .line {
        fill: none;
        stroke: #2b2838;
        stroke-width: 2px;
      }
      .highlighted {
        font-size: 22px;
      }
      .highlightedline {
        stroke-width: 3px;
      }
      .white_fill {
        fill: #fff;
      }
      .faded {
        fill: #a09fa4;
      }
      .fadestroke {
        stroke: #a09fa4;
      }
      .lightline{
        stroke: #d3d0d4;
        stroke-width: 3px;
      }</style>
<linearGradient id="linear-gradient" x1="18" y1="250" x2="1007" y2="250" gradientTransform="matrix(1, 0, 0, 1, 0, 0)" gradientUnits="userSpaceOnUse">
<stop offset="0" stop-color="#e6dcf4"></stop>
<stop offset="1" stop-color="#ffd0be"></stop>
</linearGradient>
<linearGradient id="linear-gradient-2" x1="720.88" y1="337.91" x2="370.24" y2="74.18" gradientTransform="matrix(1, 0, 0, 1, 0, 0)" gradientUnits="userSpaceOnUse">
<stop offset="0" stop-color="#2b2838" stop-opacity=".24"></stop>
<stop offset="1" stop-color="#45424d" stop-opacity="0"></stop>
</linearGradient>
<linearGradient id="linear-gradient-3" x1="304.12" y1="162.09" x2="654.76" y2="425.82" gradientTransform="matrix(1, 0, 0, 1, 0, 0)" gradientUnits="userSpaceOnUse">
<stop offset="0" stop-color="#2b2838" stop-opacity=".24"></stop>
<stop offset="1" stop-color="#45424d" stop-opacity="0"></stop>
</linearGradient>
<path id="background" fill="#fff" d="M 0,0 L 1025,0 L 1025,500 L 0,500"></path><path id="upper_arc" class="line" d="M 0,250 a238,238 0 0,1 238,-238 L 787,12 a238,238 0 0,1 238,238"></path><path id="lower_arc" class="line" d="M 0,250 a238,238 0 0,0 238,238 L 787,488 a238,238 0 0,0 238,-238"></path><path id="clear_1" fill="#fff" d="M -3,190 L -3,310 L 1028,310 L 1028,190"></path>
<path id="clear_2" fill="#fff" d="M 422,0 L 603,0 L 603,500 L 422,500"></path>
<path id="loop" fill="url(#linear-gradient)" d="M 512.5,181.18 L 370.24,74.18 a220,220 0 1,0 0,351.64 L 512.5,318.8 L 654.76,425.82 a220,220 0 1,0 0,-351.64"></path>
<path id="cutout_1" fill="#fff" d="M 421,250 L 304.12,162.09 a110,110 0 1,0 0,175.82"></path>
<path id="cutout_2" fill="#fff" d="M 604,250 L 720.88,162.09 a110,110 0 1,1 0,175.82"></path>
<path id="shadow_1" fill="url(#linear-gradient-2)" class="mix" d="M 512.5,181.18 L 421,250 L 304.12,162.09 L 370.24,74.18"></path>
<path id="shadow_2" fill="url(#linear-gradient-3)" class="mix" d="M 512.5,318.8 L 604,250 L 720.88,337.91 L 654.76,425.82"></path><path class="lightline" fill="none" d="M 421,256 L 304.12,168.09 a104,104 0 1,0 -64.12,185.91 L 225,341"></path>
<path class="lightline" fill="none" d="M 604,256 L 720.88,168.09 a104,104 0 1,1 64.12,185.91 L 800,341"></path>
<path fill="#fff" class="lightline" d="M 357,205 L 668,205 a45,45 0 0,1 0,90 L 357,295 a45,45 0 0,1 0,-90"></path>
<path d="M536.514 419L536.448 418.82L529.663 401.124C529.526 400.778 529.281 400.483 528.965 400.283C528.73 400.131 528.461 400.039 528.184 400.01C527.905 399.981 527.624 400.018 527.363 400.118C527.1 400.216 526.866 400.376 526.676 400.583C526.488 400.789 526.35 401.037 526.274 401.306L521.695 415.326H503.151L498.571 401.306C498.495 401.037 498.357 400.79 498.169 400.584C497.979 400.378 497.745 400.219 497.484 400.119C497.221 400.02 496.941 399.982 496.662 400.011C496.384 400.04 496.116 400.133 495.88 400.283C495.565 400.483 495.32 400.778 495.183 401.124L488.403 418.824L488.331 419C487.355 421.551 487.235 424.35 487.989 426.976C488.743 429.601 490.33 431.911 492.511 433.556L492.536 433.575L492.594 433.62L502.914 441.355L508.034 445.224L511.145 447.575C511.51 447.851 511.955 448 512.411 448C512.869 448 513.314 447.851 513.679 447.575L516.789 445.224L521.909 441.355L532.303 433.575L532.331 433.553C534.513 431.909 536.1 429.6 536.854 426.975C537.609 424.35 537.489 421.551 536.514 419Z" fill="#E24329"></path>
<path d="M536.514 419L536.448 418.82C533.141 419.499 530.028 420.899 527.328 422.923L512.431 434.186L521.916 441.355L532.309 433.575L532.339 433.553C534.517 431.908 536.104 429.599 536.858 426.974C537.61 424.349 537.49 421.55 536.514 419Z" fill="#FC6D26"></path>
<path d="M502.914 441.355L508.034 445.224L511.145 447.575C511.51 447.851 511.954 448 512.411 448C512.869 448 513.314 447.851 513.679 447.575L516.789 445.224L521.909 441.355L512.425 434.186L502.914 441.355Z" fill="#FCA326"></path>
<path d="M497.519 422.923C494.82 420.9 491.706 419.5 488.403 418.824L488.331 419C487.355 421.551 487.235 424.35 487.989 426.976C488.743 429.601 490.33 431.911 492.511 433.556L492.536 433.575L492.594 433.62L502.914 441.355L512.405 434.186L497.519 422.923Z" fill="#FC6D26"></path>
<text x="50%" y="255" class="text devsecops">DevSecOps</text><text x="353" y="131" class="text">Plan</text><text x="127" y="131" class="text">Code</text><text x="127" y="371" class="text">Build</text><text x="353" y="371" class="text">Test</text><text x="672" y="131" class="text">Release</text><text x="898" y="131" class="text">Deploy</text><text x="898" y="371" class="text">Operate</text><text x="672" y="371" class="text">Monitor</text><text x="50%" y="13" class="text text2">Security</text><text x="50%" y="488" class="text text2">Compliance</text></svg>
