<?xml version="1.0" encoding="UTF-8" standalone="no"?>
<!-- Svg Vector Icons : http://www.onlinewebfonts.com/icon -->

<svg
   version="1.1"
   x="0px"
   y="0px"
   viewBox="0 0 1000 1000"
   enable-background="new 0 0 1000 1000"
   xml:space="preserve"
   id="svg144"
   sodipodi:docname="2b275a026063c7c0b2ffbbe309c829ef.svg"
   inkscape:export-filename="logo.svg"
   inkscape:export-xdpi="96"
   inkscape:export-ydpi="96"
   inkscape:version="1.2.1 (9c6d41e, 2022-07-14)"
   xmlns:inkscape="http://www.inkscape.org/namespaces/inkscape"
   xmlns:sodipodi="http://sodipodi.sourceforge.net/DTD/sodipodi-0.dtd"
   xmlns="http://www.w3.org/2000/svg"
   xmlns:svg="http://www.w3.org/2000/svg"><defs
   id="defs148"><style
     id="style3637">.cls-1{fill:#171321;}</style><style
     id="style4674">.cls-1{fill:#171321;}</style></defs><sodipodi:namedview
   id="namedview146"
   pagecolor="#ffffff"
   bordercolor="#000000"
   borderopacity="0.25"
   inkscape:showpageshadow="2"
   inkscape:pageopacity="0.0"
   inkscape:pagecheckerboard="0"
   inkscape:deskcolor="#d1d1d1"
   showgrid="false"
   inkscape:zoom="1.027"
   inkscape:cx="425.99805"
   inkscape:cy="488.31548"
   inkscape:window-width="2210"
   inkscape:window-height="1269"
   inkscape:window-x="214"
   inkscape:window-y="25"
   inkscape:window-maximized="0"
   inkscape:current-layer="svg144" />
<metadata
   id="metadata132"> Svg Vector Icons : http://www.onlinewebfonts.com/icon </metadata>

<path
   d="m 339.86678,12.180001 c -23.77,2.74 -48.01,8.23 -70.87,16.23 -62.41,22.17 -101.5,56.240002 -123.22,107.449999 l -5.94,14.4 V 524.03 897.8 l 8.46,17.37 c 18.97,38.64 56.69,59.67 126.19,69.96004 22.18,3.2 59.9,3.89 303.36,4.57 208.26,0.69 280.73,0.23 288.04,-1.6 20.8,-5.72004 33.84,-28.80004 27.43,-48.46004 -3.43,-10.06 -15.55,-21.95 -25.6,-24.69 -4.8,-1.6 -121.39,-3.2 -309.54,-4.8 -295.82,-2.29 -301.99,-2.52 -315.48,-7.09 -26.52,-9.14 -41.38,-24.69 -40.69,-42.29 0.69,-18.06 14.17,-32.46 39.32,-41.84 11.2,-4.34 23.09,-4.57 310.68,-7.08 164.37,-1.37 299.25,-3.43 299.93,-4.12 0.69,-0.92 5.94,-4.34 11.89,-7.77 5.71,-3.43 13.72,-10.51 17.6,-15.77 14.86,-20.12 14.17,1.6 13.49,-377.89 l -0.69,-345.199999 -6.4,-13.03 c -6.86,-13.94 -17.83,-24.46 -31.32,-30.4 -4.34,-2.06 -9.83,-4.57 -11.89,-5.71 -5.01,-2.7600004 -480.51,-2.5300004 -504.75,0.22 z"
   id="path134"
   style="fill:#a989f5;fill-opacity:1;stroke-width:0.1"
   sodipodi:nodetypes="cccccccccccccccccccccccccc"
   inkscape:export-filename="logo.svg"
   inkscape:export-xdpi="96"
   inkscape:export-ydpi="96" /><path
   class="cls-1"
   d="m 781.14377,348.85181 -0.73342,-1.87428 -71.00515,-185.30879 a 18.498283,18.498283 0 0 0 -7.30696,-8.80094 19.014387,19.014387 0 0 0 -21.73073,1.16803 19.014387,19.014387 0 0 0 -6.30191,9.56152 L 626.12218,310.27976 H 431.98528 L 384.04186,163.59735 a 18.6341,18.6341 0 0 0 -6.30191,-9.58869 19.014387,19.014387 0 0 0 -21.73073,-1.16802 18.661263,18.661263 0 0 0 -7.30695,8.80094 l -71.14098,185.2273 -0.70624,1.87427 a 131.8512,131.8512 0 0 0 43.73309,152.38674 l 0.24447,0.19014 0.65192,0.46178 108.1647,81.00129 53.51192,40.50064 32.59609,24.61005 a 21.920872,21.920872 0 0 0 26.51149,0 l 32.59609,-24.61005 53.51192,-40.50064 108.81663,-81.49023 0.27163,-0.21731 a 131.90552,131.90552 0 0 0 43.67877,-152.22375 z"
   id="path4678"
   style="fill:#ffffff;stroke-width:2.71634" /></svg>
